<svg width="40" height="40" viewBox="0 0 40 40" fill="none" xmlns="http://www.w3.org/2000/svg">
<path d="M21.6667 13.334C21.6667 12.4135 20.9205 11.6673 20 11.6673C19.0796 11.6673 18.3334 12.4135 18.3334 13.334V18.334H13.3334C12.4129 18.334 11.6667 19.0802 11.6667 20.0007C11.6667 20.9211 12.4129 21.6673 13.3334 21.6673H18.3334V26.6673C18.3334 27.5878 19.0796 28.334 20 28.334C20.9205 28.334 21.6667 27.5878 21.6667 26.6673V21.6673H26.6667C27.5872 21.6673 28.3334 20.9211 28.3334 20.0007C28.3334 19.0802 27.5872 18.334 26.6667 18.334H21.6667V13.334Z" fill="#0F1729"/>
<path fill-rule="evenodd" clip-rule="evenodd" d="M20 3.33398C10.7953 3.33398 3.33337 10.7959 3.33337 20.0007C3.33337 29.2054 10.7953 36.6673 20 36.6673C29.2048 36.6673 36.6667 29.2054 36.6667 20.0007C36.6667 10.7959 29.2048 3.33398 20 3.33398ZM6.66671 20.0007C6.66671 12.6369 12.6362 6.66732 20 6.66732C27.3638 6.66732 33.3334 12.6369 33.3334 20.0007C33.3334 27.3644 27.3638 33.334 20 33.334C12.6362 33.334 6.66671 27.3644 6.66671 20.0007Z" fill="#0F1729"/>
</svg>
