<svg width="25" height="25" viewBox="0 0 25 25" fill="none" xmlns="http://www.w3.org/2000/svg">
<path d="M24.751 7.50098C24.751 7.50098 24.5068 5.77734 23.7549 5.02051C22.8027 4.02441 21.7383 4.01953 21.25 3.96094C17.7539 3.70703 12.5049 3.70703 12.5049 3.70703H12.4951C12.4951 3.70703 7.24609 3.70703 3.75 3.96094C3.26172 4.01953 2.19727 4.02441 1.24512 5.02051C0.493164 5.77734 0.253906 7.50098 0.253906 7.50098C0.253906 7.50098 0 9.52734 0 11.5488V13.4434C0 15.4648 0.249023 17.4912 0.249023 17.4912C0.249023 17.4912 0.493164 19.2148 1.24023 19.9717C2.19238 20.9678 3.44238 20.9336 3.99902 21.041C6.00098 21.2314 12.5 21.29 12.5 21.29C12.5 21.29 17.7539 21.2803 21.25 21.0312C21.7383 20.9727 22.8027 20.9678 23.7549 19.9717C24.5068 19.2148 24.751 17.4912 24.751 17.4912C24.751 17.4912 25 15.4697 25 13.4434V11.5488C25 9.52734 24.751 7.50098 24.751 7.50098ZM9.91699 15.7432V8.7168L16.6699 12.2422L9.91699 15.7432Z" fill="#228B22"/>
</svg>
