<svg width="51" height="50" viewBox="0 0 51 50" fill="none" xmlns="http://www.w3.org/2000/svg">
<g clip-path="url(#clip0_27_1569)">
<g filter="url(#filter0_d_27_1569)">
<g filter="url(#filter1_d_27_1569)">
<path d="M44.25 21.875C44.25 30.5045 37.2545 37.5 28.625 37.5C19.9955 37.5 13 30.5045 13 21.875C13 13.2455 19.9955 6.25 28.625 6.25C37.2545 6.25 44.25 13.2455 44.25 21.875Z" fill="url(#paint0_linear_27_1569)"/>
</g>
<g filter="url(#filter2_dd_27_1569)">
<path fill-rule="evenodd" clip-rule="evenodd" d="M23.5509 36.9659C22.9284 37.6773 21.8216 37.6773 21.1991 36.9659L13.705 28.4012C12.821 27.3909 13.5384 25.8098 14.8809 25.8098H17.6875V13.2148C11.3483 15.2059 6.75 21.1282 6.75 28.1245C6.75 36.754 13.7455 43.7495 22.375 43.7495C31.0045 43.7495 38 36.754 38 28.1245C38 21.1282 33.4017 15.2059 27.0625 13.2148V25.8098H29.8691C31.2115 25.8098 31.929 27.3909 31.045 28.4012L23.5509 36.9659Z" fill="white" fill-opacity="0.4"/>
</g>
</g>
</g>
<defs>
<filter id="filter0_d_27_1569" x="2.75" y="2.25" width="53.5" height="53.5" filterUnits="userSpaceOnUse" color-interpolation-filters="sRGB">
<feFlood flood-opacity="0" result="BackgroundImageFix"/>
<feColorMatrix in="SourceAlpha" type="matrix" values="0 0 0 0 0 0 0 0 0 0 0 0 0 0 0 0 0 0 127 0" result="hardAlpha"/>
<feOffset dx="4" dy="4"/>
<feGaussianBlur stdDeviation="4"/>
<feColorMatrix type="matrix" values="0 0 0 0 0.545098 0 0 0 0 0.823529 0 0 0 0 0.192157 0 0 0 0.4 0"/>
<feBlend mode="normal" in2="BackgroundImageFix" result="effect1_dropShadow_27_1569"/>
<feBlend mode="normal" in="SourceGraphic" in2="effect1_dropShadow_27_1569" result="shape"/>
</filter>
<filter id="filter1_d_27_1569" x="5" y="-1.75" width="47.25" height="47.25" filterUnits="userSpaceOnUse" color-interpolation-filters="sRGB">
<feFlood flood-opacity="0" result="BackgroundImageFix"/>
<feColorMatrix in="SourceAlpha" type="matrix" values="0 0 0 0 0 0 0 0 0 0 0 0 0 0 0 0 0 0 127 0" result="hardAlpha"/>
<feOffset/>
<feGaussianBlur stdDeviation="4"/>
<feComposite in2="hardAlpha" operator="out"/>
<feColorMatrix type="matrix" values="0 0 0 0 1 0 0 0 0 1 0 0 0 0 1 0 0 0 0.8 0"/>
<feBlend mode="normal" in2="BackgroundImageFix" result="effect1_dropShadow_27_1569"/>
<feBlend mode="normal" in="SourceGraphic" in2="effect1_dropShadow_27_1569" result="shape"/>
</filter>
<filter id="filter2_dd_27_1569" x="-1.25" y="9.21484" width="47.25" height="46.5352" filterUnits="userSpaceOnUse" color-interpolation-filters="sRGB">
<feFlood flood-opacity="0" result="BackgroundImageFix"/>
<feColorMatrix in="SourceAlpha" type="matrix" values="0 0 0 0 0 0 0 0 0 0 0 0 0 0 0 0 0 0 127 0" result="hardAlpha"/>
<feOffset/>
<feGaussianBlur stdDeviation="2"/>
<feComposite in2="hardAlpha" operator="out"/>
<feColorMatrix type="matrix" values="0 0 0 0 1 0 0 0 0 1 0 0 0 0 1 0 0 0 1 0"/>
<feBlend mode="normal" in2="BackgroundImageFix" result="effect1_dropShadow_27_1569"/>
<feColorMatrix in="SourceAlpha" type="matrix" values="0 0 0 0 0 0 0 0 0 0 0 0 0 0 0 0 0 0 127 0" result="hardAlpha"/>
<feOffset dy="4"/>
<feGaussianBlur stdDeviation="4"/>
<feComposite in2="hardAlpha" operator="out"/>
<feColorMatrix type="matrix" values="0 0 0 0 1 0 0 0 0 1 0 0 0 0 1 0 0 0 1 0"/>
<feBlend mode="normal" in2="effect1_dropShadow_27_1569" result="effect2_dropShadow_27_1569"/>
<feBlend mode="normal" in="SourceGraphic" in2="effect2_dropShadow_27_1569" result="shape"/>
</filter>
<linearGradient id="paint0_linear_27_1569" x1="28.625" y1="6.25" x2="28.625" y2="37.5" gradientUnits="userSpaceOnUse">
<stop stop-color="#93DF32"/>
<stop offset="1" stop-color="#70BD0D"/>
</linearGradient>
<clipPath id="clip0_27_1569">
<rect width="50" height="50" fill="white" transform="translate(0.5)"/>
</clipPath>
</defs>
</svg>
